<svg width="60" height="60" viewBox="0 0 60 60" fill="none" xmlns="http://www.w3.org/2000/svg">
<path d="M29.4565 9H30.5435C31.648 9 32.5435 9.89543 32.5435 11V11.828C32.5435 12.4655 32.8881 13.0531 33.4444 13.3642C34.091 13.7258 34.8949 13.6438 35.4552 13.159L35.6732 12.9704C36.46 12.2897 37.6372 12.3258 38.3808 13.0535L38.9961 13.6558C39.7975 14.4401 39.7975 15.7301 38.9961 16.5144L38.9645 16.5454C38.339 17.1576 38.1842 18.1053 38.5824 18.8846L38.7692 19.2503C39.111 19.9194 39.7989 20.3404 40.5502 20.3404H41.0638C42.1331 20.3404 43 21.2073 43 22.2766C43 23.3459 42.1331 24.2128 41.0638 24.2128H40.6693C39.8569 24.2128 39.1253 24.7041 38.8179 25.4561L38.6387 25.8946C38.3651 26.5642 38.4743 27.3293 38.9243 27.8956L39.1098 28.129C39.7225 28.9 39.6827 30.0022 39.0162 30.7271L38.7731 30.9914C38.1132 31.7091 37.0319 31.8463 36.2136 31.3163L35.9878 31.17C35.4252 30.8056 34.7174 30.7472 34.1027 31.0146L33.7443 31.1705C33.0151 31.4877 32.5435 32.2072 32.5435 33.0024C32.5435 34.1056 31.6491 35 30.5458 35H29.7368C28.6335 35 27.7391 34.1056 27.7391 33.0024C27.7391 32.2072 27.2675 31.4877 26.5383 31.1705L26.1251 30.9908C25.5408 30.7366 24.8705 30.7761 24.32 31.097L23.6864 31.4663C22.9086 31.9198 21.9237 31.7976 21.2802 31.1679L20.8325 30.7297C20.1001 30.0128 20.028 28.8584 20.6656 28.056L20.7931 27.8956C21.2431 27.3293 21.3523 26.5642 21.0787 25.8946L20.8995 25.4561C20.5921 24.7041 19.8605 24.2128 19.0481 24.2128H18.9362C17.8669 24.2128 17 23.3459 17 22.2766C17 21.2073 17.8669 20.3404 18.9362 20.3404H19.1672C19.9185 20.3404 20.6064 19.9194 20.9482 19.2503L21.135 18.8846C21.5332 18.1053 21.3784 17.1576 20.7529 16.5454L20.6591 16.4536C19.882 15.693 19.855 14.4508 20.5983 13.6571L21.1215 13.0985C21.8284 12.3437 22.9941 12.2523 23.8101 12.8877L24.2099 13.1991C24.8131 13.6688 25.6401 13.7492 26.3267 13.4132C27.0127 13.0775 27.4565 12.3761 27.4565 11.6124V11C27.4565 9.89543 28.352 9 29.4565 9Z" stroke="#1779E5" stroke-width="2"/>
<path d="M25.0026 21.8392C25.0946 19.0835 27.486 16.8267 30.333 17.0105C32.9966 17.1825 34.9115 19.2611 34.9971 21.8392C35.0859 24.5106 33.0929 26.8121 30.333 26.9899C27.3957 27.1791 24.9077 24.6824 25.0026 21.8392Z" stroke="#1779E5" stroke-width="2"/>
<path d="M35.7292 53.4348L23.125 53.4348M35.7292 53.4348V55.9146C35.7292 57.0129 34.8435 57.9057 33.7453 57.9145L25.1411 57.9838C24.0303 57.9927 23.125 57.0947 23.125 55.9838L23.125 53.4348M35.7292 53.4348L37.1667 53.4348C38.2713 53.4348 39.1667 52.5394 39.1667 51.4348V49.8551C39.1667 48.7505 38.2713 47.8551 37.1667 47.8551H35.7292M23.125 53.4348L21.6875 53.4348C20.583 53.4348 19.6875 52.5394 19.6875 51.4348V49.8551C19.6875 48.7505 20.583 47.8551 21.6875 47.8551H23.125M35.7292 47.8551V47.8551C36.4174 43.163 40.1983 39.4756 43.7805 36.3678C46.9435 33.6237 50 28.9581 50 21.174C50 9.9072 41.5625 2.00018 29.6875 2C18.5552 1.99983 9.99999 10.3321 10 21.174C10 28.2766 13.6985 33.3119 16.9854 36.3845C19.8303 39.0439 22.3152 42.334 22.8804 46.1871L23.125 47.8551M35.7292 47.8551H23.125" stroke="#1779E5" stroke-width="2"/>
</svg>
