<svg width="60" height="60" viewBox="0 0 60 60" fill="none" xmlns="http://www.w3.org/2000/svg">
<path d="M12.2975 27.9164C11.2288 20.4941 10.017 10.8111 10.017 10.8111C10.017 10.8111 10.017 7.19846 7.73656 7.00991C5.45609 6.82136 5.45609 9.38559 5.45609 9.38559L5.02908 31.1838C5.01032 32.1415 5.33589 33.0742 5.9466 33.8122L15.4841 45.3379C16.0776 46.0552 16.4023 46.9571 16.4023 47.8881V50.2489M12.2975 27.9164C10.9292 29.3419 12.2975 31.2425 12.2975 31.2425L15.9463 36.9443M12.2975 27.9164C13.6658 26.491 15.0341 27.9164 15.0341 27.9164C15.0341 27.9164 22.3347 32.9614 24.612 38.3697C26.2717 42.3112 25.9803 49.2982 25.9803 49.2982M25.9803 49.2982V55H16.4023V50.2489M25.9803 49.2982L16.4023 50.2489" stroke="#1779E5" stroke-width="2"/>
<path d="M47.7025 27.9164C48.7712 20.4941 49.983 10.8111 49.983 10.8111C49.983 10.8111 49.983 7.19846 52.2634 7.00991C54.5439 6.82136 54.5439 9.38559 54.5439 9.38559L54.9709 31.1838C54.9897 32.1415 54.6641 33.0742 54.0534 33.8122L44.5159 45.3379C43.9224 46.0552 43.5977 46.9571 43.5977 47.8881V50.2489M47.7025 27.9164C49.0708 29.3419 47.7025 31.2425 47.7025 31.2425L44.0537 36.9443M47.7025 27.9164C46.3342 26.491 44.9659 27.9164 44.9659 27.9164C44.9659 27.9164 37.6653 32.9614 35.388 38.3697C33.7283 42.3112 34.0197 49.2982 34.0197 49.2982M34.0197 49.2982V55H43.5977V50.2489M34.0197 49.2982L43.5977 50.2489" stroke="#1779E5" stroke-width="2"/>
<path fill-rule="evenodd" clip-rule="evenodd" d="M31.4076 26.9998C26.6302 27.0661 16.6218 12.125 19.5161 8.51938C20.2352 7.74999 21.2136 7.34745 22.2145 7.36038C24.6203 7.39148 26.6679 8.75344 28.0223 10.4284C29.0459 11.6942 29.6378 13.1985 30.4636 14.5699C30.4795 14.5962 30.6721 14.918 30.7206 14.8599C30.8309 14.7276 30.879 14.5622 30.9441 14.4083C32.0377 11.8193 32.9697 9.55078 35.2306 7.5223C36.1767 6.67346 37.5739 5.69992 39.0212 6.08776C40.7023 6.53822 41.0553 8.4375 40.9934 9.76926C40.8014 13.8982 36.7512 26.9242 31.4076 26.9998Z" stroke="#1779E5" stroke-width="2" stroke-miterlimit="1.5" stroke-linecap="round" stroke-linejoin="round"/>
</svg>
