<svg width="62" height="60" viewBox="0 0 62 60" fill="none" xmlns="http://www.w3.org/2000/svg">
<path d="M17.8658 15.5299V15.5299C19.1371 13.722 18.7154 11.2055 16.9067 9.93536L14.9782 8.58111C14.5227 8.26122 13.8936 8.37488 13.5788 8.83394L1.53339 26.3994C1.2339 26.8362 1.32682 27.4307 1.74532 27.7552L3.43183 29.063C5.1649 30.4069 7.66935 30.0305 8.93081 28.2365V28.2365M17.8658 15.5299L18.4318 16.0328C19.5129 16.9937 21.028 17.2912 22.4277 16.9263C23.0132 16.7737 23.6815 16.6143 24.393 16.4711C28.0918 15.727 31.411 18.1735 31.411 18.1735M17.8658 15.5299L8.93081 28.2365M8.93081 28.2365C8.93081 28.2365 12.376 29.6944 13.7397 31.5309C14.1112 32.0311 14.4068 32.6652 14.6414 33.3363C15.602 36.0843 16.6353 38.8959 18.6877 40.9604L30.0074 52.3468C31.8219 54.4918 35.6217 50.8262 34.686 48.9437M34.686 48.9437L28.1359 42.3551M34.686 48.9437C36.3425 50.9404 41.274 48.439 39.3646 45.6494M39.3646 45.6494L32.3467 38.5901M39.3646 45.6494C41.6849 48.439 46.2055 45.6494 44.9789 43.2963M44.9789 43.2963C41.5074 39.8043 36.0896 34.3546 36.0896 34.3546M44.9789 43.2963C47.4384 45.6494 50.5933 41.7686 48.254 39.0607M48.254 39.0607L36.8486 27.5882C36.3449 27.0815 35.9267 26.4604 35.3141 26.0925C34.7279 25.7404 33.7758 25.4745 32.3467 25.8835C29.9246 26.5766 27.7123 30.5896 24.8609 31.0602C23.2127 31.3323 21.5859 28.7072 21.5859 28.7072L30.4664 19.1861C32.5089 16.9963 35.7125 16.3368 38.4538 17.5419V17.5419C39.5977 18.0447 40.9223 17.904 41.935 17.172L44.207 15.5299M48.254 39.0607C48.254 39.0607 49.9579 37.8425 50.5933 36.7076C51.0072 35.9682 51.0408 34.6166 50.9561 33.3715C50.8418 31.6906 51.5537 30.0085 52.9952 29.1364L53.7045 28.7072M44.207 15.5299V15.5299C43.0501 13.9248 43.2919 11.7053 44.7672 10.3869L46.6027 8.74677C47.048 8.34881 47.7406 8.42741 48.0855 8.91505L60.4648 26.4205C60.7667 26.8474 60.6888 27.4348 60.2859 27.7682L58.4212 29.3116C56.9701 30.5125 54.8058 30.2352 53.7045 28.7072V28.7072M44.207 15.5299L53.7045 28.7072" stroke="#1779E5" stroke-width="2"/>
</svg>
