<svg width="60" height="60" viewBox="0 0 60 60" fill="none" xmlns="http://www.w3.org/2000/svg">
<path d="M35.532 22.1126V34.3261L44.9184 31.5076M41.0922 9.88496C38.9045 9.49873 37.6463 9.38993 35.4247 9.39486C33.2588 9.39967 32.0332 9.5084 29.9001 9.88496M41.0922 9.88496C52.0752 12.3023 59.1353 21.2022 58.998 32.4571C58.843 45.1684 48.23 55.2545 35.532 54.9951C23.0958 54.7411 13.2324 44.9051 13.0046 32.4571C12.803 21.4445 19.2842 12.7858 29.9001 9.88496M41.0922 9.88496C41.0922 8.95209 41.0922 7.13568 41.0922 5.99986C41.0922 5.44758 40.6445 5 40.0922 5H30.9001C30.3478 5 29.9001 5.44758 29.9001 5.99986C29.9001 7.13568 29.9001 8.95209 29.9001 9.88496M35.532 14.5967C25.8575 14.7748 17.8136 22.5188 18.3421 32.4571C18.8423 41.8624 26.1235 49.185 35.532 49.3581C45.1216 49.5346 52.856 42.0434 53.3662 32.4571C53.9042 22.3473 45.3826 14.4153 35.532 14.5967Z" stroke="#1779E5" stroke-width="2" stroke-linecap="round" stroke-linejoin="round"/>
<path d="M10 23H4.63324M9.24147 37H2.42339M8.38553 29.9572L1 29.9573" stroke="#1779E5" stroke-width="2" stroke-linecap="round" stroke-linejoin="round"/>
</svg>
