<svg width="60" height="60" viewBox="0 0 60 60" fill="none" xmlns="http://www.w3.org/2000/svg">
<path d="M10 6C10 4.89543 10.8954 4 12 4H47C48.1046 4 49 4.89543 49 6V54C49 55.1046 48.1046 56 47 56H12C10.8954 56 10 55.1046 10 54V6Z" stroke="#1779E5" stroke-width="2"/>
<path d="M19.5697 31.2222C20.5834 31.2222 21 30.409 21 29.406V25.7735C21 24.7704 20.5834 23.9572 19.5697 23.9572H15.8989C14.8853 23.9572 14.0635 24.7704 14.0635 25.7735V29.406C14.0635 30.409 14.8853 31.2222 15.8989 31.2222H19.5697Z" stroke="#1779E5" stroke-width="2"/>
<path d="M19.5697 41.2115C20.5834 41.2115 21 40.5031 21 39.5V35.7628C21 34.7597 20.5834 33.9466 19.5697 33.9466H15.8989C14.8853 33.9466 14.0635 34.7597 14.0635 35.7628V39.3953C14.0635 40.3984 14.8853 41.2115 15.8989 41.2115H19.5697Z" stroke="#1779E5" stroke-width="2"/>
<path d="M19.5697 51.2009C20.5834 51.2009 21 50.3877 21 49.3847V45.7522C21 44.7491 20.5834 43.9359 19.5697 43.9359H15.8989C14.8853 43.9359 14.0635 44.7491 14.0635 45.7522V49.3847C14.0635 50.3877 14.8853 51.2009 15.8989 51.2009H19.5697Z" stroke="#1779E5" stroke-width="2"/>
<path d="M31.4997 31.2222C32.5134 31.2222 33 30.409 33 29.406V25.7735C33 24.7704 32.5134 23.9572 31.4997 23.9572H27.829C26.8153 23.9572 25.9936 24.7704 25.9936 25.7735V29.406C25.9936 30.409 26.8153 31.2222 27.829 31.2222H31.4997Z" stroke="#1779E5" stroke-width="2"/>
<path d="M31.4997 41.2115C32.5134 41.2115 33 40.3984 33 39.3953V35.7628C33 34.7597 32.5134 33.9466 31.4997 33.9466H27.829C26.8153 33.9466 25.9936 34.7597 25.9936 35.7628V39.3953C25.9936 40.3984 26.8153 41.2115 27.829 41.2115H31.4997Z" stroke="#1779E5" stroke-width="2"/>
<path d="M31.4997 51.2009C32.5134 51.2009 33 50.3877 33 49.3847V45.7522C33 44.7491 32.5134 43.9359 31.4997 43.9359H27.829C26.8153 43.9359 25.9936 44.7491 25.9936 45.7522V49.3847C25.9936 50.3877 26.8153 51.2009 27.829 51.2009H31.4997Z" stroke="#1779E5" stroke-width="2"/>
<path d="M43.4298 31.2222C44.4434 31.2222 45 30.409 45 29.406V25.7735C45 24.7704 44.4434 23.9572 43.4298 23.9572H39.759C38.7453 23.9572 37.9236 24.7704 37.9236 25.7735V29.406C37.9236 30.409 38.7453 31.2222 39.759 31.2222H43.4298Z" stroke="#1779E5" stroke-width="2"/>
<path d="M43.4298 41.2115C44.4434 41.2115 45 40.3984 45 39.3953V35.7628C45 34.7597 44.4434 33.9466 43.4298 33.9466H39.759C38.7453 33.9466 37.9236 34.7597 37.9236 35.7628V39.3953C37.9236 40.3984 38.7453 41.2115 39.759 41.2115H43.4298Z" stroke="#1779E5" stroke-width="2"/>
<path d="M43.4298 51.2009C44.4434 51.2009 45 50.3877 45 49.3847V45.7522C45 44.7491 44.4434 43.9359 43.4298 43.9359H39.759C38.7453 43.9359 37.9236 44.7491 37.9236 45.7522V49.3847C37.9236 50.3877 38.7453 51.2009 39.759 51.2009H43.4298Z" stroke="#1779E5" stroke-width="2"/>
</svg>
