<svg width="60" height="60" viewBox="0 0 60 60" fill="none" xmlns="http://www.w3.org/2000/svg">
<path d="M9.40725 11.2364L28.9241 5.17988C29.302 5.0626 29.7063 5.06007 30.0856 5.1726L50.5688 11.2485C51.4177 11.5004 52 12.2776 52 13.1632V36.2422C52 44.1791 43.8519 55 29.5038 55C15.1557 55 7.99992 41.9403 8 36.2422L8.00001 13.137C8 12.2608 8.57038 11.4961 9.40725 11.2364Z" stroke="#1779E5" stroke-width="2"/>
<path d="M15.3831 15.623L29.0358 11.1956C29.4284 11.0683 29.8507 11.0656 30.2449 11.1878L44.5922 15.6351C45.4293 15.8946 46 16.6689 46 17.5454V34.7441C46 40.7761 40.0741 49 29.6391 49C19.2041 49 13.9999 39.0746 14 34.7441L14 17.5207C14 16.6538 14.5585 15.8904 15.3831 15.623Z" stroke="#1779E5" stroke-width="2"/>
<path d="M23 30.1724L27.8837 35L38 25" stroke="#1779E5" stroke-width="2"/>
</svg>
