<svg width="40" height="40" viewBox="0 0 40 40" fill="none" xmlns="http://www.w3.org/2000/svg">
<rect width="40" height="40" rx="20" fill="#1779E5"/>
<path fill-rule="evenodd" clip-rule="evenodd" d="M20.3872 14.9133C16.2451 14.82 13.2115 18.5661 13.95 22.1209C14.1741 23.1995 14.6659 24.2039 15.3803 25.0283L16.8185 23.6339C16.3667 23.0852 16.0559 22.4252 15.9082 21.714C15.4465 19.4917 17.4111 16.8467 20.3421 16.9128C23.2044 16.9774 24.9726 19.5133 24.5188 21.7156C24.3596 22.488 24.0246 23.1932 23.5274 23.7624L24.9795 25.1377C25.7348 24.2936 26.2451 23.2477 26.4776 22.1193C27.1912 18.6566 24.459 15.0051 20.3872 14.9133Z" fill="#F6FAFF"/>
<path fill-rule="evenodd" clip-rule="evenodd" d="M20.4622 10.0032C13.1176 9.82972 7.9333 16.76 9.18735 23.0838C9.61383 25.2345 10.599 27.231 12.0473 28.8129L13.4618 27.3984C12.299 26.1073 11.5026 24.477 11.1492 22.6948C10.1353 17.5821 14.3951 11.8604 20.415 12.0026C26.3103 12.1419 30.1474 17.6619 29.1572 22.6963C28.763 24.7002 27.8504 26.4976 26.481 27.8424L27.9044 29.2468C29.5593 27.6067 30.6557 25.4408 31.1196 23.0823C32.3352 16.9021 27.669 10.1734 20.4622 10.0032Z" fill="#F6FAFF"/>
<circle cx="20.1559" cy="21.4454" r="2.01624" fill="#F6FAFF"/>
</svg>
