<svg width="40" height="40" viewBox="0 0 40 40" fill="none" xmlns="http://www.w3.org/2000/svg">
<rect width="40" height="40" rx="20" fill="#1779E5"/>
<path d="M17.6 17.4V13C17.6 12.4477 17.1523 12 16.6 12H12.2C11.6477 12 11.2 12.4477 11.2 13V17.4C11.2 17.9523 11.6477 18.4 12.2 18.4H16.6C17.1523 18.4 17.6 17.9523 17.6 17.4Z" stroke="#F6FAFF" stroke-width="2"/>
<path d="M17.6 27.7999V23.3999C17.6 22.8476 17.1523 22.3999 16.6 22.3999H12.2C11.6477 22.3999 11.2 22.8476 11.2 23.3999V27.7999C11.2 28.3522 11.6477 28.7999 12.2 28.7999H16.6C17.1523 28.7999 17.6 28.3522 17.6 27.7999Z" stroke="#F6FAFF" stroke-width="2"/>
<path d="M28 27.7999V23.3999C28 22.8476 27.5523 22.3999 27 22.3999H22.6C22.0477 22.3999 21.6 22.8476 21.6 23.3999V27.7999C21.6 28.3522 22.0477 28.7999 22.6 28.7999H27C27.5523 28.7999 28 28.3522 28 27.7999Z" stroke="#F6FAFF" stroke-width="2"/>
<path d="M25.3395 18.9765L28.5765 15.7395C28.8745 15.4415 28.8745 14.9584 28.5765 14.6604L25.3395 11.4234C25.0415 11.1255 24.5585 11.1255 24.2605 11.4234L21.0235 14.6604C20.7255 14.9584 20.7255 15.4415 21.0235 15.7395L24.2605 18.9765C24.5585 19.2744 25.0415 19.2744 25.3395 18.9765Z" stroke="#F6FAFF" stroke-width="2"/>
</svg>
